<?xml version="1.0" standalone="no"?>
<!DOCTYPE svg PUBLIC "-//W3C//DTD SVG 20010904//EN"
 "http://www.w3.org/TR/2001/REC-SVG-20010904/DTD/svg10.dtd">
<svg version="1.0" xmlns="http://www.w3.org/2000/svg"
 width="1080.000000pt" height="1080.000000pt" viewBox="0 0 1080.000000 1080.000000"
 preserveAspectRatio="xMidYMid meet">

<g transform="translate(0.000000,1080.000000) scale(0.100000,-0.100000)"
fill="#000000" stroke="none">
<path d="M4305 6040 c-3 -5 -31 -17 -61 -26 -41 -12 -58 -22 -69 -44 -8 -15
-21 -30 -29 -33 -9 -4 -22 -21 -31 -39 -8 -18 -27 -53 -41 -78 -24 -41 -25
-53 -22 -141 3 -80 7 -100 26 -123 12 -16 27 -46 32 -67 6 -22 20 -44 33 -50
12 -7 30 -23 40 -36 10 -12 24 -23 31 -23 7 0 32 -13 54 -30 41 -29 45 -30
161 -30 116 0 119 0 156 30 21 17 43 30 49 30 21 0 103 85 115 119 6 19 18 42
26 51 21 24 37 124 29 190 -4 35 -17 72 -35 101 -16 25 -29 51 -29 57 0 7 -13
24 -30 38 -16 15 -32 35 -35 45 -3 10 -20 21 -38 25 -18 3 -49 15 -69 25 -30
15 -59 19 -147 19 -61 0 -113 -4 -116 -10z"/>
<path d="M6255 6040 c-3 -5 -31 -17 -61 -26 -41 -12 -58 -22 -69 -44 -8 -15
-21 -30 -29 -33 -9 -4 -22 -21 -31 -39 -8 -18 -27 -53 -41 -78 -24 -41 -25
-53 -22 -141 3 -80 7 -100 26 -123 12 -16 27 -46 32 -67 6 -22 20 -44 33 -50
12 -7 30 -23 40 -36 10 -12 24 -23 31 -23 7 0 32 -13 54 -30 41 -29 45 -30
161 -30 116 0 119 0 156 30 21 17 43 30 49 30 21 0 103 85 115 119 6 19 18 42
26 51 21 24 37 124 29 190 -4 35 -17 72 -35 101 -16 25 -29 51 -29 57 0 7 -13
24 -30 38 -16 15 -32 35 -35 45 -3 10 -20 21 -38 25 -18 3 -49 15 -69 25 -30
15 -59 19 -147 19 -61 0 -113 -4 -116 -10z"/>
<path d="M4800 4885 c-46 -34 -50 -42 -50 -106 0 -55 1 -57 58 -116 31 -33 75
-70 98 -81 22 -11 46 -27 53 -36 7 -8 37 -22 66 -30 37 -11 54 -22 58 -36 5
-19 13 -20 314 -20 307 0 308 0 318 22 6 13 29 27 61 38 28 9 64 26 79 38 15
12 33 22 40 22 18 0 88 60 130 111 30 35 35 48 35 91 0 47 -4 55 -40 90 -37
34 -46 38 -93 38 -55 0 -91 -18 -165 -82 -18 -15 -39 -28 -47 -28 -7 0 -43
-16 -79 -35 l-66 -35 -169 0 c-162 0 -170 1 -217 26 -27 15 -70 33 -96 41 -26
7 -52 22 -58 33 -6 11 -30 33 -54 50 -59 40 -126 42 -176 5z"/>
</g>
</svg>
